<svg xmlns="http://www.w3.org/2000/svg" id="uuid-5a2c24b9-ec0e-428a-8b72-687f5959b00b" viewBox="0 0 512 512"><defs><style>.uuid-379cbcb3-e5ec-45d9-b9f4-936df7f6e475{fill-rule:evenodd;stroke-width:0px;}</style></defs><path class="uuid-379cbcb3-e5ec-45d9-b9f4-936df7f6e475" d="m256,.5C114.9.5.5,114.9.5,256s11.1,85.1,30.5,121.2L1.1,489.1c-1.6,6.2.1,12.7,4.6,17.2,4.5,4.5,11.1,6.3,17.2,4.6l111.9-29.9c36.1,19.5,77.4,30.5,121.2,30.5,141.1,0,255.5-114.4,255.5-255.5S397.1.5,256,.5Zm-118.8,118.8c-4.7,0-9.3,1.9-12.6,5.2-3.3,3.3-5.2,7.9-5.2,12.6,0,76.8,37,143.3,74.6,180.9,37.6,37.6,104.1,74.6,180.9,74.6s9.3-1.9,12.6-5.2c3.3-3.3,5.2-7.9,5.2-12.6v-69.4c0-8.7-6.3-16.2-14.9-17.6l-92.3-15.3-40.9,41.6c-9.6-6.9-18.2-14.1-25.4-21.3-7.2-7.2-14.5-15.8-21.3-25.4l41.4-40.7-13.2-92.1c-1.3-8.8-8.8-15.3-17.6-15.3h-71.3Z"></path></svg>